<svg xmlns="http://www.w3.org/2000/svg" xmlns:xlink="http://www.w3.org/1999/xlink" width="500" zoomAndPan="magnify" viewBox="0 0 375 374.999991" height="500" preserveAspectRatio="xMidYMid meet" version="1.0"><defs><clipPath id="44ab2023ba"><path d="M 46 10 L 345.847656 10 L 345.847656 369 L 46 369 Z M 46 10 " clip-rule="nonzero"/></clipPath></defs><g clip-path="url(#44ab2023ba)"><path fill="#946b11" d="M 196.304688 10.433594 C 192.5625 10.4375 188.828125 10.585938 185.097656 10.871094 C 181.367188 11.152344 177.652344 11.578125 173.953125 12.140625 C 170.253906 12.703125 166.582031 13.402344 162.9375 14.242188 C 159.289062 15.078125 155.679688 16.050781 152.105469 17.15625 C 148.53125 18.265625 145.003906 19.503906 141.523438 20.875 C 138.042969 22.246094 134.617188 23.746094 131.246094 25.375 C 127.878906 27 124.574219 28.75 121.335938 30.625 C 118.097656 32.5 114.9375 34.492188 111.847656 36.605469 C 108.757812 38.714844 105.75 40.9375 102.828125 43.273438 C 99.90625 45.609375 97.074219 48.050781 94.335938 50.597656 C 91.59375 53.148438 88.953125 55.792969 86.410156 58.539062 C 83.871094 61.28125 81.433594 64.121094 79.101562 67.046875 C 76.773438 69.972656 74.554688 72.984375 72.449219 76.078125 C 70.34375 79.171875 68.359375 82.335938 66.492188 85.578125 C 64.621094 88.820312 62.878906 92.128906 61.257812 95.5 C 59.636719 98.871094 58.144531 102.300781 56.78125 105.785156 C 55.414062 109.265625 54.183594 112.796875 53.082031 116.375 C 51.980469 119.949219 51.015625 123.5625 50.1875 127.210938 C 49.355469 130.859375 48.664062 134.53125 48.105469 138.230469 C 47.550781 141.929688 47.136719 145.648438 46.859375 149.378906 C 46.578125 153.109375 46.441406 156.84375 46.445312 160.585938 C 46.445312 164.328125 46.585938 168.0625 46.867188 171.796875 C 47.148438 175.527344 47.570312 179.242188 48.128906 182.941406 C 48.6875 186.640625 49.382812 190.3125 50.21875 193.960938 C 51.050781 197.609375 52.019531 201.21875 53.125 204.792969 C 54.226562 208.367188 55.464844 211.898438 56.832031 215.378906 C 58.199219 218.863281 59.695312 222.289062 61.320312 225.660156 C 62.941406 229.03125 64.691406 232.335938 66.5625 235.574219 C 68.433594 238.816406 70.421875 241.980469 72.53125 245.070312 C 74.636719 248.164062 76.859375 251.171875 79.191406 254.097656 C 81.523438 257.019531 83.964844 259.855469 86.507812 262.597656 C 89.050781 265.339844 91.695312 267.984375 94.4375 270.527344 L 191.085938 366.496094 C 191.730469 367.257812 192.507812 367.851562 193.414062 368.277344 C 194.320312 368.699219 195.273438 368.917969 196.273438 368.925781 C 197.292969 368.921875 198.265625 368.707031 199.195312 368.285156 C 200.121094 367.859375 200.921875 367.265625 201.59375 366.496094 L 296.835938 271.140625 C 300.714844 267.667969 304.40625 264 307.902344 260.136719 C 311.398438 256.277344 314.679688 252.242188 317.753906 248.035156 C 320.824219 243.824219 323.664062 239.46875 326.277344 234.960938 C 328.890625 230.457031 331.257812 225.824219 333.382812 221.066406 C 335.507812 216.3125 337.375 211.457031 338.992188 206.503906 C 340.605469 201.550781 341.953125 196.527344 343.039062 191.433594 C 344.121094 186.335938 344.9375 181.199219 345.480469 176.019531 C 346.023438 170.835938 346.292969 165.640625 346.289062 160.433594 C 346.289062 157.980469 346.226562 155.527344 346.101562 153.074219 C 345.980469 150.625 345.796875 148.175781 345.554688 145.734375 C 345.3125 143.292969 345.011719 140.859375 344.652344 138.429688 C 344.289062 136.003906 343.867188 133.585938 343.386719 131.179688 C 342.90625 128.773438 342.367188 126.378906 341.773438 124 C 341.175781 121.617188 340.519531 119.253906 339.804688 116.90625 C 339.089844 114.558594 338.320312 112.230469 337.492188 109.917969 C 336.664062 107.609375 335.78125 105.320312 334.839844 103.050781 C 333.902344 100.785156 332.90625 98.542969 331.855469 96.324219 C 330.808594 94.105469 329.703125 91.914062 328.546875 89.75 C 327.386719 87.585938 326.179688 85.453125 324.917969 83.347656 C 323.652344 81.242188 322.339844 79.171875 320.976562 77.128906 C 319.613281 75.089844 318.199219 73.085938 316.738281 71.113281 C 315.277344 69.140625 313.765625 67.207031 312.210938 65.3125 C 310.652344 63.414062 309.050781 61.554688 307.402344 59.738281 C 305.753906 57.917969 304.0625 56.144531 302.328125 54.40625 C 300.59375 52.671875 298.816406 50.980469 296.996094 49.332031 C 295.179688 47.683594 293.320312 46.082031 291.425781 44.523438 C 289.527344 42.964844 287.59375 41.457031 285.621094 39.992188 C 283.652344 38.53125 281.644531 37.117188 279.605469 35.753906 C 277.566406 34.390625 275.492188 33.078125 273.390625 31.816406 C 271.285156 30.550781 269.148438 29.34375 266.984375 28.183594 C 264.820312 27.027344 262.628906 25.921875 260.414062 24.871094 C 258.195312 23.824219 255.953125 22.828125 253.683594 21.886719 C 251.417969 20.945312 249.128906 20.0625 246.820312 19.234375 C 244.507812 18.40625 242.179688 17.636719 239.832031 16.921875 C 237.484375 16.207031 235.121094 15.554688 232.738281 14.953125 C 230.359375 14.355469 227.964844 13.816406 225.558594 13.335938 C 223.152344 12.855469 220.734375 12.4375 218.308594 12.074219 C 215.878906 11.710938 213.445312 11.410156 211.003906 11.167969 C 208.5625 10.925781 206.113281 10.742188 203.664062 10.621094 C 201.210938 10.5 198.761719 10.4375 196.304688 10.433594 Z M 220.132812 256.730469 L 172.445312 256.730469 L 172.445312 241.679688 L 188.820312 241.679688 L 188.820312 226.625 L 203.808594 226.625 L 203.808594 241.679688 L 220.132812 241.679688 Z M 267.375 214.085938 C 267.0625 214.679688 266.675781 215.21875 266.207031 215.699219 C 265.738281 216.183594 265.210938 216.582031 264.621094 216.90625 C 264.03125 217.230469 263.410156 217.460938 262.753906 217.601562 C 262.097656 217.738281 261.433594 217.777344 260.765625 217.71875 L 131.796875 217.71875 C 131.128906 217.777344 130.46875 217.734375 129.8125 217.597656 C 129.15625 217.457031 128.53125 217.226562 127.945312 216.902344 C 127.355469 216.578125 126.828125 216.175781 126.359375 215.695312 C 125.890625 215.21875 125.5 214.679688 125.1875 214.085938 C 124.890625 213.46875 124.675781 212.828125 124.546875 212.15625 C 124.414062 211.488281 124.367188 210.8125 124.410156 210.132812 C 124.453125 209.449219 124.582031 208.785156 124.792969 208.136719 C 125.007812 207.488281 125.296875 206.875 125.667969 206.300781 L 150.023438 170.28125 L 148.816406 170.28125 C 148.152344 170.332031 147.496094 170.285156 146.847656 170.144531 C 146.199219 170 145.582031 169.765625 145.003906 169.441406 C 144.421875 169.117188 143.902344 168.714844 143.4375 168.234375 C 142.976562 167.757812 142.59375 167.222656 142.289062 166.628906 C 141.980469 166.019531 141.757812 165.382812 141.617188 164.714844 C 141.476562 164.046875 141.425781 163.371094 141.464844 162.6875 C 141.5 162.007812 141.625 161.34375 141.839844 160.695312 C 142.050781 160.042969 142.347656 159.433594 142.71875 158.863281 L 159.507812 134.457031 C 158.945312 134.261719 158.414062 134.003906 157.90625 133.6875 C 157.402344 133.375 156.9375 133.007812 156.515625 132.585938 C 156.09375 132.167969 155.722656 131.707031 155.402344 131.203125 C 155.082031 130.703125 154.820312 130.171875 154.617188 129.609375 C 154.417969 129.050781 154.28125 128.476562 154.207031 127.882812 C 154.132812 127.292969 154.125 126.703125 154.183594 126.109375 C 154.242188 125.515625 154.363281 124.9375 154.550781 124.371094 C 154.738281 123.808594 154.988281 123.269531 155.292969 122.761719 L 190.175781 71.769531 C 190.503906 71.269531 190.894531 70.824219 191.339844 70.425781 C 191.789062 70.03125 192.28125 69.703125 192.816406 69.4375 C 193.351562 69.171875 193.914062 68.984375 194.5 68.871094 C 195.085938 68.753906 195.675781 68.71875 196.273438 68.761719 C 196.871094 68.710938 197.464844 68.742188 198.054688 68.851562 C 198.644531 68.964844 199.207031 69.152344 199.746094 69.417969 C 200.285156 69.679688 200.777344 70.011719 201.226562 70.414062 C 201.675781 70.8125 202.0625 71.265625 202.386719 71.769531 L 236.160156 121.734375 C 236.609375 122.03125 237.011719 122.378906 237.367188 122.78125 C 237.71875 123.1875 238.015625 123.628906 238.25 124.109375 C 238.488281 124.59375 238.652344 125.097656 238.753906 125.625 C 238.851562 126.15625 238.878906 126.6875 238.835938 127.222656 C 238.792969 128.046875 238.628906 128.847656 238.339844 129.625 C 238.046875 130.398438 237.648438 131.113281 237.140625 131.765625 C 236.628906 132.417969 236.03125 132.976562 235.347656 133.445312 C 234.667969 133.914062 233.929688 134.269531 233.136719 134.507812 L 249 157.328125 C 249.785156 158.101562 250.402344 158.996094 250.847656 160.003906 C 251.292969 161.015625 251.535156 162.074219 251.578125 163.175781 C 251.574219 163.660156 251.527344 164.136719 251.429688 164.613281 C 251.332031 165.085938 251.1875 165.546875 250.996094 165.988281 C 250.808594 166.433594 250.574219 166.855469 250.296875 167.253906 C 250.023438 167.652344 249.710938 168.015625 249.359375 168.351562 C 249.011719 168.683594 248.632812 168.980469 248.222656 169.238281 C 247.8125 169.496094 247.382812 169.710938 246.929688 169.878906 C 246.476562 170.050781 246.011719 170.171875 245.53125 170.25 C 245.054688 170.324219 244.574219 170.351562 244.089844 170.332031 L 242.570312 170.332031 L 266.894531 206.351562 C 267.292969 206.914062 267.609375 207.519531 267.839844 208.167969 C 268.070312 208.816406 268.207031 209.488281 268.25 210.175781 C 268.292969 210.863281 268.238281 211.542969 268.089844 212.214844 C 267.941406 212.890625 267.703125 213.527344 267.375 214.132812 Z M 267.375 214.085938 " fill-opacity="1" fill-rule="nonzero"/></g></svg>